<svg width="32" height="32" viewBox="0 0 32 32" fill="none" xmlns="http://www.w3.org/2000/svg">
  <!-- Background circle -->
  <circle cx="16" cy="16" r="15" fill="#2563eb" stroke="#1d4ed8" stroke-width="2"/>
  
  <!-- Shopping bag outline -->
  <path d="M8 12L7 25H25L24 12H8Z" stroke="white" stroke-width="1.5" stroke-linejoin="round" fill="none"/>
  
  <!-- Shopping bag handles -->
  <path d="M11 12V10C11 8.34315 12.3431 7 14 7H18C19.6569 7 21 8.34315 21 10V12" stroke="white" stroke-width="1.5" stroke-linecap="round" stroke-linejoin="round" fill="none"/>
  
  <!-- S letter in the center -->
  <path d="M13 16C13 15.4477 13.4477 15 14 15H16C16.5523 15 17 15.4477 17 16C17 16.5523 16.5523 17 16 17H14C13.4477 17 13 17.4477 13 18C13 18.5523 13.4477 19 14 19H16C16.5523 19 17 18.5523 17 18" stroke="white" stroke-width="1.2" stroke-linecap="round" fill="none"/>
</svg>
