<svg width="32" height="32" viewBox="0 0 32 32" fill="none" xmlns="http://www.w3.org/2000/svg">
  <!-- Background circle with Shoply blue -->
  <circle cx="16" cy="16" r="16" fill="#2563eb"/>
  
  <!-- Shopping bag outline in white -->
  <path d="M8 12L7 26H25L24 12H8Z" stroke="white" stroke-width="1.5" stroke-linejoin="round" fill="rgba(255,255,255,0.1)"/>
  
  <!-- Shopping bag handles -->
  <path d="M11 12V10C11 8.34315 12.3431 7 14 7H18C19.6569 7 21 8.34315 21 10V12" stroke="white" stroke-width="1.5" stroke-linecap="round" stroke-linejoin="round" fill="none"/>
  
  <!-- S letter in white -->
  <path d="M13 17C13 16.4477 13.4477 16 14 16H16C16.5523 16 17 16.4477 17 17C17 17.5523 16.5523 18 16 18H14C13.4477 18 13 18.4477 13 19C13 19.5523 13.4477 20 14 20H16C16.5523 20 17 19.5523 17 19" stroke="white" stroke-width="1.2" stroke-linecap="round" fill="none"/>
</svg>
